<svg width="1366" height="768" viewBox="0 0 1366 768" fill="none" xmlns="http://www.w3.org/2000/svg" xmlns:xlink="http://www.w3.org/1999/xlink">
<g clip-path="url(#clip0_3096_7050)">
<rect width="1366" height="768" fill="url(#paint0_linear_3096_7050)"/>
<rect width="1366" height="768" fill="black" fill-opacity="0.3"/>
<g opacity="0.25" filter="url(#filter0_f_3096_7050)">
<circle cx="286.5" cy="152.5" r="446.5" fill="#0E0B16"/>
</g>
<g opacity="0.25" filter="url(#filter1_f_3096_7050)">
<circle cx="1213.5" cy="641.5" r="446.5" fill="#A59BC5"/>
</g>
<g filter="url(#filter2_d_3096_7050)">
<text fill="white" xml:space="preserve" style="white-space: pre" font-family="Comfortaa" font-size="30" font-weight="300" letter-spacing="0em"><tspan x="472" y="334.057">Congratulations, &#60;USER&#62;&#10;</tspan></text>
<text fill="white" fill-opacity="0.8" xml:space="preserve" style="white-space: pre" font-family="Comfortaa" font-size="60" font-weight="bold" letter-spacing="0em"><tspan x="472" y="401.058">Welcome to the</tspan></text>
</g>
<g filter="url(#filter3_d_3096_7050)">
<text fill="#FFA98D" xml:space="preserve" style="white-space: pre" font-family="Comfortaa" font-size="60" font-weight="bold" letter-spacing="0em"><tspan x="963" y="401.91">40% club!</tspan></text>
</g>
<text fill="white" xml:space="preserve" style="white-space: pre" font-family="Comfortaa" font-size="30" font-weight="300" letter-spacing="0em"><tspan x="472" y="447.205">Congrats on your first club achievement!</tspan></text>
<g filter="url(#filter4_d_3096_7050)">
<circle cx="275" cy="384" r="127" fill="url(#pattern0)" shape-rendering="crispEdges"/>
<circle cx="275" cy="384" r="122" stroke="#FF8C68" stroke-opacity="0.25" stroke-width="10" shape-rendering="crispEdges"/>
</g>
<g opacity="0.25" clip-path="url(#clip1_3096_7050)">
<path d="M530.882 624.58L512.618 614.153C507.612 611.26 501.388 611.26 496.382 614.153L478.118 624.58C473.112 627.473 470 632.787 470 638.573V659.427C470 665.213 473.112 670.527 478.118 673.42L496.382 683.847C501.388 686.74 507.612 686.74 512.618 683.847L530.882 673.42C535.888 670.527 539 665.213 539 659.427V638.573C539 632.787 535.888 627.473 530.882 624.58ZM534.738 658.149C534.738 663.195 532.032 667.837 527.635 670.393L511.603 679.542C507.206 682.098 501.726 682.098 497.329 679.542L481.365 670.393C476.968 667.837 474.262 663.195 474.262 658.149V639.851C474.262 634.806 476.968 630.164 481.365 627.607L497.397 618.458C501.794 615.902 507.206 615.902 511.603 618.458L527.635 627.607C532.032 630.164 534.738 634.806 534.738 639.851V658.149ZM513.429 642.475C513.429 643.82 512.347 644.897 510.994 644.897C509.641 644.897 508.559 643.82 508.559 642.475C508.559 641.129 509.641 640.053 510.994 640.053C512.347 640.053 513.429 641.129 513.429 642.475ZM524.524 630.5L510.656 622.562C506.868 620.409 502.132 620.409 498.276 622.562L484.476 630.5C480.688 632.653 478.321 636.757 478.321 641.062V656.938C478.321 661.311 480.688 665.347 484.476 667.5L498.344 675.438C502.132 677.591 506.868 677.591 510.724 675.438L524.591 667.5C528.379 665.347 530.747 661.244 530.747 656.938V641.062C530.747 636.689 528.312 632.653 524.524 630.5ZM508.626 653.709C508.085 653.709 507.476 653.642 507.003 653.575L505.785 654.92C505.582 655.189 505.244 655.324 504.906 655.324H503.012V657.342C503.012 658.015 502.471 658.553 501.794 658.553H499.765V660.571C499.765 661.244 499.224 661.782 498.547 661.782H492.932C492.256 661.782 491.715 661.244 491.715 660.571V656.669C491.715 656.333 491.85 656.064 492.053 655.795L500.171 647.722C499.9 646.847 499.697 645.906 499.697 644.964C499.697 640.12 503.688 636.151 508.559 636.151C513.497 636.151 517.421 640.053 517.421 644.964C517.488 649.74 513.497 653.709 508.626 653.709Z" fill="white"/>
</g>
<g opacity="0.25">
<text fill="white" xml:space="preserve" style="white-space: pre" font-family="Comfortaa" font-size="30" font-weight="bold" letter-spacing="0em"><tspan x="677.018" y="659.205">authenticator</tspan></text>
<text fill="white" xml:space="preserve" style="white-space: pre" font-family="Comfortaa" font-size="30" font-weight="bold" letter-spacing="0em"><tspan x="668.229" y="659.205"> </tspan></text>
<text fill="white" xml:space="preserve" style="white-space: pre" font-family="Comfortaa" font-size="30" font-weight="300" letter-spacing="0em"><tspan x="569" y="659.205">osekai</tspan></text>
</g>
</g>
<defs>
<filter id="filter0_f_3096_7050" x="-660" y="-794" width="1893" height="1893" filterUnits="userSpaceOnUse" color-interpolation-filters="sRGB">
<feFlood flood-opacity="0" result="BackgroundImageFix"/>
<feBlend mode="normal" in="SourceGraphic" in2="BackgroundImageFix" result="shape"/>
<feGaussianBlur stdDeviation="250" result="effect1_foregroundBlur_3096_7050"/>
</filter>
<filter id="filter1_f_3096_7050" x="267" y="-305" width="1893" height="1893" filterUnits="userSpaceOnUse" color-interpolation-filters="sRGB">
<feFlood flood-opacity="0" result="BackgroundImageFix"/>
<feBlend mode="normal" in="SourceGraphic" in2="BackgroundImageFix" result="shape"/>
<feGaussianBlur stdDeviation="250" result="effect1_foregroundBlur_3096_7050"/>
</filter>
<filter id="filter2_d_3096_7050" x="456.18" y="298.27" width="1504.669" height="122.971" filterUnits="userSpaceOnUse" color-interpolation-filters="sRGB">
<feFlood flood-opacity="0" result="BackgroundImageFix"/>
<feColorMatrix in="SourceAlpha" type="matrix" values="0 0 0 0 0 0 0 0 0 0 0 0 0 0 0 0 0 0 127 0" result="hardAlpha"/>
<feOffset dy="4"/>
<feGaussianBlur stdDeviation="8"/>
<feComposite in2="hardAlpha" operator="out"/>
<feColorMatrix type="matrix" values="0 0 0 0 1 0 0 0 0 1 0 0 0 0 1 0 0 0 0.25 0"/>
<feBlend mode="normal" in2="BackgroundImageFix" result="effect1_dropShadow_3096_7050"/>
<feBlend mode="normal" in="SourceGraphic" in2="effect1_dropShadow_3096_7050" result="shape"/>
</filter>
<filter id="filter3_d_3096_7050" x="943.14" y="338.08" width="332.277" height="89.2197" filterUnits="userSpaceOnUse" color-interpolation-filters="sRGB">
<feFlood flood-opacity="0" result="BackgroundImageFix"/>
<feColorMatrix in="SourceAlpha" type="matrix" values="0 0 0 0 0 0 0 0 0 0 0 0 0 0 0 0 0 0 127 0" result="hardAlpha"/>
<feOffset dy="4"/>
<feGaussianBlur stdDeviation="10.5"/>
<feComposite in2="hardAlpha" operator="out"/>
<feColorMatrix type="matrix" values="0 0 0 0 1 0 0 0 0 0.54902 0 0 0 0 0.407843 0 0 0 1 0"/>
<feBlend mode="normal" in2="BackgroundImageFix" result="effect1_dropShadow_3096_7050"/>
<feBlend mode="normal" in="SourceGraphic" in2="effect1_dropShadow_3096_7050" result="shape"/>
</filter>
<filter id="filter4_d_3096_7050" x="37" y="150" width="476" height="476" filterUnits="userSpaceOnUse" color-interpolation-filters="sRGB">
<feFlood flood-opacity="0" result="BackgroundImageFix"/>
<feColorMatrix in="SourceAlpha" type="matrix" values="0 0 0 0 0 0 0 0 0 0 0 0 0 0 0 0 0 0 127 0" result="hardAlpha"/>
<feMorphology radius="14" operator="dilate" in="SourceAlpha" result="effect1_dropShadow_3096_7050"/>
<feOffset dy="4"/>
<feGaussianBlur stdDeviation="48.5"/>
<feComposite in2="hardAlpha" operator="out"/>
<feColorMatrix type="matrix" values="0 0 0 0 1 0 0 0 0 0.54902 0 0 0 0 0.407843 0 0 0 1 0"/>
<feBlend mode="normal" in2="BackgroundImageFix" result="effect1_dropShadow_3096_7050"/>
<feBlend mode="normal" in="SourceGraphic" in2="effect1_dropShadow_3096_7050" result="shape"/>
</filter>
<pattern id="pattern0" patternContentUnits="objectBoundingBox" width="1" height="1">
<use xlink:href="#image0_3096_7050" transform="scale(0.015625)"/>
</pattern>
<linearGradient id="paint0_linear_3096_7050" x1="683" y1="0" x2="683" y2="768" gradientUnits="userSpaceOnUse">
<stop stop-color="#FF8C68"/>
<stop offset="1" stop-color="#D39682"/>
</linearGradient>
<clipPath id="clip0_3096_7050">
<rect width="1366" height="768" rx="50" fill="white"/>
</clipPath>
<clipPath id="clip1_3096_7050">
<rect width="69" height="74" fill="white" transform="translate(470 612)"/>
</clipPath>
<image id="image0_3096_7050" width="64" height="64" xlink:href="USERPFP"/>
</defs>
</svg>
